<svg width="24" height="24" viewBox="0 0 24 24" fill="none" xmlns="http://www.w3.org/2000/svg">
<path d="M7.0585 18.0938L6.49236 18.5L7.0585 18.9062C8.44934 19.9042 10.1504 20.5 12 20.5C13.8496 20.5 15.5507 19.9042 16.9415 18.9062L17.5076 18.5L16.9415 18.0938C15.5507 17.0958 13.8496 16.5 12 16.5C10.1504 16.5 8.44934 17.0958 7.0585 18.0938ZM17.8322 17.514L18.2137 17.812L18.5239 17.4404C19.7554 15.9646 20.5 14.0724 20.5 12C20.5 7.30386 16.6961 3.5 12 3.5C7.30386 3.5 3.5 7.30386 3.5 12C3.5 14.0724 4.24456 15.9646 5.47612 17.4404L5.78628 17.812L6.16778 17.514C7.7743 16.2592 9.79703 15.5 12 15.5C14.203 15.5 16.2257 16.2592 17.8322 17.514ZM2.5 12C2.5 6.75614 6.75614 2.5 12 2.5C17.2439 2.5 21.5 6.75614 21.5 12C21.5 17.2439 17.2439 21.5 12 21.5C6.75614 21.5 2.5 17.2439 2.5 12ZM9 9.5C9 7.84614 10.3461 6.5 12 6.5C13.6539 6.5 15 7.84614 15 9.5C15 11.1539 13.6539 12.5 12 12.5C10.3461 12.5 9 11.1539 9 9.5ZM10 9.5C10 10.6061 10.8939 11.5 12 11.5C13.1061 11.5 14 10.6061 14 9.5C14 8.39386 13.1061 7.5 12 7.5C10.8939 7.5 10 8.39386 10 9.5Z" fill="#404040" stroke="#404040"/>
</svg>
