<svg width="24" height="24" viewBox="0 0 24 24" fill="none" xmlns="http://www.w3.org/2000/svg">
<rect x="0.5" y="0.5" width="23" height="23" rx="7.5" stroke="#96999C"/>
<g clip-path="url(#clip0_204_2597)">
<path d="M15.5 7.511C15.5 7.507 15.5 7.504 15.5 7.5V6.5C15.5 6.36739 15.4473 6.24021 15.3536 6.14645C15.2598 6.05268 15.1326 6 15 6C14.8674 6 14.7402 6.05268 14.6464 6.14645C14.5527 6.24021 14.5 6.36739 14.5 6.5V7.05C14.3354 7.01658 14.1679 6.99983 14 7H13.5V6.5C13.5 6.36739 13.4473 6.24021 13.3536 6.14645C13.2598 6.05268 13.1326 6 13 6C12.8674 6 12.7402 6.05268 12.6464 6.14645C12.5527 6.24021 12.5 6.36739 12.5 6.5V7H11.5V6.5C11.5 6.36739 11.4473 6.24021 11.3536 6.14645C11.2598 6.05268 11.1326 6 11 6C10.8674 6 10.7402 6.05268 10.6464 6.14645C10.5527 6.24021 10.5 6.36739 10.5 6.5V7H10C9.83208 6.99983 9.66456 7.01658 9.5 7.05V6.5C9.5 6.36739 9.44732 6.24021 9.35355 6.14645C9.25979 6.05268 9.13261 6 9 6C8.86739 6 8.74021 6.05268 8.64645 6.14645C8.55268 6.24021 8.5 6.36739 8.5 6.5V7.5V7.511C8.19039 7.74219 7.93885 8.04227 7.76528 8.38749C7.59172 8.73272 7.50089 9.1136 7.5 9.5V15.5C7.50079 16.1628 7.76444 16.7982 8.23311 17.2669C8.70178 17.7356 9.3372 17.9992 10 18H14C14.6628 17.9992 15.2982 17.7356 15.7669 17.2669C16.2356 16.7982 16.4992 16.1628 16.5 15.5V9.5C16.4991 9.1136 16.4083 8.73272 16.2347 8.38749C16.0612 8.04227 15.8096 7.74219 15.5 7.511V7.511ZM12 14.5H10C9.86739 14.5 9.74021 14.4473 9.64645 14.3536C9.55268 14.2598 9.5 14.1326 9.5 14C9.5 13.8674 9.55268 13.7402 9.64645 13.6464C9.74021 13.5527 9.86739 13.5 10 13.5H12C12.1326 13.5 12.2598 13.5527 12.3536 13.6464C12.4473 13.7402 12.5 13.8674 12.5 14C12.5 14.1326 12.4473 14.2598 12.3536 14.3536C12.2598 14.4473 12.1326 14.5 12 14.5ZM14 12.5H10C9.86739 12.5 9.74021 12.4473 9.64645 12.3536C9.55268 12.2598 9.5 12.1326 9.5 12C9.5 11.8674 9.55268 11.7402 9.64645 11.6464C9.74021 11.5527 9.86739 11.5 10 11.5H14C14.1326 11.5 14.2598 11.5527 14.3536 11.6464C14.4473 11.7402 14.5 11.8674 14.5 12C14.5 12.1326 14.4473 12.2598 14.3536 12.3536C14.2598 12.4473 14.1326 12.5 14 12.5ZM14 10.5H10C9.86739 10.5 9.74021 10.4473 9.64645 10.3536C9.55268 10.2598 9.5 10.1326 9.5 10C9.5 9.86739 9.55268 9.74021 9.64645 9.64645C9.74021 9.55268 9.86739 9.5 10 9.5H14C14.1326 9.5 14.2598 9.55268 14.3536 9.64645C14.4473 9.74021 14.5 9.86739 14.5 10C14.5 10.1326 14.4473 10.2598 14.3536 10.3536C14.2598 10.4473 14.1326 10.5 14 10.5Z" fill="#96999C"/>
</g>
<defs>
<clipPath id="clip0_204_2597">
<rect width="12" height="12" fill="white" transform="translate(6 6)"/>
</clipPath>
</defs>
</svg>
