<svg width="24" height="24" viewBox="0 0 24 24" fill="none" xmlns="http://www.w3.org/2000/svg">
<rect x="0.5" y="0.5" width="23" height="23" rx="7.5" stroke="#EB5757"/>
<path d="M17.25 7.33332H15.4416C15.1625 5.97625 13.9688 5.00175 12.5833 5H11.4166C10.0311 5.00175 8.83734 5.97625 8.55827 7.33332H6.74995C6.42779 7.33332 6.16663 7.59448 6.16663 7.91665C6.16663 8.23881 6.42779 8.5 6.74995 8.5H7.33327V16.0833C7.33522 17.6934 8.63992 18.9981 10.25 19H13.75C15.36 18.9981 16.6647 17.6934 16.6666 16.0833V8.5H17.25C17.5721 8.5 17.8333 8.23884 17.8333 7.91668C17.8333 7.59451 17.5721 7.33332 17.25 7.33332ZM11.4166 14.9167C11.4166 15.2388 11.1555 15.5 10.8333 15.5C10.5111 15.5 10.25 15.2388 10.25 14.9167V11.4167C10.25 11.0945 10.5111 10.8334 10.8333 10.8334C11.1554 10.8334 11.4166 11.0945 11.4166 11.4167V14.9167H11.4166ZM13.75 14.9167C13.75 15.2388 13.4888 15.5 13.1666 15.5C12.8445 15.5 12.5833 15.2388 12.5833 14.9167V11.4167C12.5833 11.0945 12.8445 10.8334 13.1666 10.8334C13.4888 10.8334 13.75 11.0945 13.75 11.4167V14.9167ZM9.76638 7.33332C10.0145 6.63466 10.6752 6.16755 11.4166 6.16665H12.5833C13.3247 6.16755 13.9854 6.63466 14.2336 7.33332H9.76638Z" fill="#EB5757"/>
</svg>
