<svg width="24" height="24" viewBox="0 0 24 24" fill="none" xmlns="http://www.w3.org/2000/svg">
<path d="M4 6H2V20C2 21.1 2.9 22 4 22H18V20H4V6ZM20 2H8C6.9 2 6 2.9 6 4V16C6 17.1 6.9 18 8 18H20C21.1 18 22 17.1 22 16V4C22 2.9 21.1 2 20 2ZM20 16H8V4H20V16ZM10 9H18V11H10V9ZM10 12H14V14H10V12ZM10 6H18V8H10V6Z" fill="#404040"/>
<path d="M3.5 20V20.5H4H17.5V21.5H4C3.17614 21.5 2.5 20.8239 2.5 20V6.5H3.5V20ZM20 16.5H20.5V16V4V3.5H20H8H7.5V4V16V16.5H8H20ZM8 2.5H20C20.8239 2.5 21.5 3.17614 21.5 4V16C21.5 16.8239 20.8239 17.5 20 17.5H8C7.17614 17.5 6.5 16.8239 6.5 16V4C6.5 3.17614 7.17614 2.5 8 2.5ZM10.5 9.5H17.5V10.5H10.5V9.5ZM10.5 12.5H13.5V13.5H10.5V12.5ZM10.5 6.5H17.5V7.5H10.5V6.5Z" stroke="#3C3C43" stroke-opacity="0.29"/>
</svg>
