<svg width="66" height="73" viewBox="0 0 66 73" fill="none" xmlns="http://www.w3.org/2000/svg">
<path d="M57.75 12.1663C54.6975 11.1018 51.3425 10.6455 48.125 10.6455C42.7625 10.6455 36.9875 11.8622 33 15.208C29.0125 11.8622 23.2375 10.6455 17.875 10.6455C12.5125 10.6455 6.7375 11.8622 2.75 15.208V59.7684C2.75 60.5288 3.4375 61.2893 4.125 61.2893C4.4 61.2893 4.5375 61.1372 4.8125 61.1372C8.525 59.1601 13.8875 57.7913 17.875 57.7913C23.2375 57.7913 29.0125 59.008 33 62.3538C36.7125 59.7684 43.45 57.7913 48.125 57.7913C52.6625 57.7913 57.3375 58.7038 61.1875 60.9851C61.4625 61.1372 61.6 61.1372 61.875 61.1372C62.5625 61.1372 63.25 60.3768 63.25 59.6163V15.208C61.6 13.8393 59.8125 12.9268 57.75 12.1663ZM57.75 53.2288C54.725 52.1643 51.425 51.708 48.125 51.708C43.45 51.708 36.7125 53.6851 33 56.2705V21.2913C36.7125 18.7059 43.45 16.7288 48.125 16.7288C51.425 16.7288 54.725 17.1851 57.75 18.2497V53.2288Z" fill="#404040"/>
<path d="M48.125 28.8955C50.545 28.8955 52.8825 29.1693 55 29.6863V25.063C52.8275 24.6068 50.49 24.333 48.125 24.333C43.45 24.333 39.215 25.2151 35.75 26.8576V31.9068C38.8575 29.9601 43.175 28.8955 48.125 28.8955Z" fill="#404040"/>
<path d="M35.75 34.9484V39.9976C38.8575 38.0509 43.175 36.9863 48.125 36.9863C50.545 36.9863 52.8825 37.2601 55 37.7772V33.1538C52.8275 32.6976 50.49 32.4238 48.125 32.4238C43.45 32.4238 39.215 33.3363 35.75 34.9484Z" fill="#404040"/>
<path d="M48.125 40.5451C43.45 40.5451 39.215 41.4272 35.75 43.0697V48.1188C38.8575 46.1722 43.175 45.1076 48.125 45.1076C50.545 45.1076 52.8825 45.3813 55 45.8984V41.2751C52.8275 40.7884 50.49 40.5451 48.125 40.5451Z" fill="#404040"/>
</svg>
