<svg width="24" height="24" viewBox="0 0 24 24" fill="none" xmlns="http://www.w3.org/2000/svg">
<path d="M11.305 21.75C12.405 21.75 13.305 20.85 13.305 19.75H9.305C9.305 20.85 10.205 21.75 11.305 21.75ZM11.305 6.25C13.795 6.25 15.305 8.27 15.305 10.75V10.85L17.305 12.85V10.75C17.305 7.68 15.675 5.11 12.805 4.43V3.75C12.805 2.92 12.135 2.25 11.305 2.25C10.475 2.25 9.805 2.92 9.805 3.75V4.43C9.565 4.49 9.335 4.58 9.115 4.66L10.755 6.3C10.935 6.28 11.115 6.25 11.305 6.25ZM4.715 3.1L3.305 4.51L6.115 7.32C5.595 8.32 5.305 9.49 5.305 10.75V15.75L3.305 17.75V18.75H17.545L19.285 20.49L20.695 19.08L4.715 3.1ZM15.305 16.75H7.305V10.75C7.305 10.07 7.425 9.43 7.645 8.85L15.305 16.51V16.75Z" fill="#404040"/>
</svg>
