<svg width="24" height="24" viewBox="0 0 24 24" fill="none" xmlns="http://www.w3.org/2000/svg">
<path d="M9.35355 19.1464L9.20711 19H9H5C4.16777 19 3.5 18.3255 3.5 17.5V3.5C3.5 2.67451 4.16777 2 5 2H19C19.8239 2 20.5 2.67614 20.5 3.5V17.5C20.5 18.3239 19.8239 19 19 19H15H14.7929L14.6464 19.1464L12 21.7929L9.35355 19.1464ZM19 18H19.5V17.5V3.5V3H19H5H4.5V3.5V17.5V18H5H9.62289L11.6464 20.0236L12 20.3771L12.3536 20.0236L14.3771 18H19ZM8.19626 14.0883L6.87341 15H8.48H15.52H17.1266L15.8037 14.0883C14.9732 13.5159 13.3823 13 12 13C10.6177 13 9.02683 13.5159 8.19626 14.0883ZM14.5 7.5C14.5 8.87386 13.3739 10 12 10C10.6261 10 9.5 8.87386 9.5 7.5C9.5 6.12614 10.6261 5 12 5C13.3739 5 14.5 6.12614 14.5 7.5ZM13.5 7.5C13.5 6.67386 12.8261 6 12 6C11.1739 6 10.5 6.67386 10.5 7.5C10.5 8.32614 11.1739 9 12 9C12.8261 9 13.5 8.32614 13.5 7.5ZM12 12C12.9477 12 14.3747 12.2563 15.5495 12.8055C16.7497 13.3664 17.5 14.1351 17.5 15.08V16H6.5V15.08C6.5 14.1351 7.25027 13.3664 8.45047 12.8055C9.62533 12.2563 11.0523 12 12 12Z" fill="#404040" stroke="#404040"/>
</svg>
