<svg width="24" height="24" viewBox="0 0 24 24" fill="none" xmlns="http://www.w3.org/2000/svg">
<path d="M12 3L1 9L5 11.18V17.18L12 21L19 17.18V11.18L21 10.09V17H23V9L12 3ZM18.82 9L12 12.72L5.18 9L12 5.28L18.82 9ZM17 15.99L12 18.72L7 15.99V12.27L12 15L17 12.27V15.99Z" fill="#404040"/>
<path d="M22.5 9.29682V16.5H21.5V10.09V9.24806L20.7607 9.65097L18.7607 10.741L18.5 10.8831V11.18V16.8833L12 20.4304L5.5 16.8833V11.18V10.8831L5.23927 10.741L2.0445 8.99982L12 3.56954L22.5 9.29682ZM19.0594 9.43895L19.8642 9L19.0594 8.56105L12.2394 4.84105L12 4.71046L11.7606 4.84105L4.94057 8.56105L4.13584 9L4.94057 9.43895L11.7606 13.1589L12 13.2895L12.2394 13.1589L19.0594 9.43895ZM17.2396 16.4288L17.5 16.2867V15.99V12.27V11.4273L16.7604 11.8312L12 14.4303L7.23961 11.8312L6.5 11.4273V12.27V15.99V16.2867L6.76039 16.4288L11.7604 19.1588L12 19.2897L12.2396 19.1588L17.2396 16.4288Z" stroke="#3C3C43" stroke-opacity="0.29"/>
</svg>
